<svg width="1920" height="1080" viewBox="0 0 1920 1080" xmlns="http://www.w3.org/2000/svg"><rect width="1920" height="1080" fill="#a7d8f2"/><path d="M1920,1080C1602.1666666666667,1098,275.8333333333333,1127.3333333333333,0,1080C-275.8333333333333,1032.6666666666667,175.16666666666669,833.8333333333334,265,796C354.8333333333333,758.1666666666666,447.5,816.1666666666666,539,853C630.5,889.8333333333334,722.3333333333334,1004.1666666666666,814,1017C905.6666666666666,1029.8333333333333,997,939.6666666666666,1089,930C1181,920.3333333333334,1273.5,943.6666666666666,1366,959C1458.5,974.3333333333334,1553.8333333333333,1019.8333333333334,1644,1022C1734.1666666666667,1024.1666666666667,1861,962.3333333333334,1907,972C1953,981.6666666666666,2237.8333333333335,1062,1920,1080C1602.1666666666667,1098,275.8333333333333,1127.3333333333333,0,1080" fill="#ffffff"/></svg>